<?xml version="1.0" encoding="UTF-8" standalone="no"?>
<svg
   id="axiros_vertical_logo"
   viewBox="0 0 5200 1000"
   version="1.1"
   xml:space="preserve"
   xmlns="http://www.w3.org/2000/svg"
   xmlns:svg="http://www.w3.org/2000/svg"><defs
     id="defs7" /><path
     fill="#8a99af"
     d="    M 2500 0  h1400 v200 h-1600 z    M 2900 200  v800 h200 v-800 z    "
     id="path1" /><path
     fill="#8a99af50"
     d="    M 3300 400  h600 v200 h-600 z    M 3300 1000  v-400 h200 v400 z     "
     id="path2" /><path
     fill="#8a99af80"
     d="   M 3700 1000  v-200 h60 l40 40 l40 -40 h60 v200      h-50 v-100 h-10 l-40 40 l-40 -40 h-10 v100 h-50  z      "
     id="path3" />

     <path
     fill="#8a99af"
     d="     M 4100,0      A 1000,1000 0 0,1 5100,1000      L 4900,1000      A 800,800 0 0,0 4100,200      Z"
     id="path5" /><path
     fill="#8a99af50"
     d="     M 4100,400      A 600,600 0 0,1 4700,1000      h -200     A 400,400 0 0,0 4100,600      Z"
     id="path6" /><path
     fill="#8a99af80"
     d="     M 4100,800 v200 h200      A 200,200 0 0,0 4100,800 z      "
     id="path7" />

     <path
     style="fill:#8bd124"
     d="M 0,1000 H 330 L 1164,170 1496,500 1000,1000 1330,1000 1660,670 2000,1000 2330,1000 1830,500 2330,0 2000,0 1660,330 1330,0 1000,0 Z"

     id="path1-6" /></svg>
